<svg id="Layer_1" xmlns="http://www.w3.org/2000/svg" viewBox="-197 351 403.2 99" width="150" height="40">
  <g id="XMLID_21_">
    <path id="XMLID_38_" class="st0" d="M-51.7 383.8v33.9c0 2.3-1.5 4.5-3.7 5.2-.7.3-1.4.4-2 .4-1.6 0-3.2-.8-4.3-2l-18.1-21.9v18.3c0 3.1-2.5 5.6-5.7 5.6-3.1 0-5.6-2.5-5.6-5.6v-33.9c0-2.4 1.5-4.5 3.7-5.3.7-.3 1.4-.4 2-.4 1.6 0 3.2.8 4.3 2l18.3 21.9v-18.2c0-3.2 2.5-5.7 5.6-5.7 3-.1 5.5 2.4 5.5 5.7z"/>
    <path id="XMLID_35_" class="st0" d="M-2.6 423.2c0 5.5-1.8 10.7-5.2 14.9-4 4.8-9.9 7.6-16 7.6h-1.4c-6.4-.5-12.4-4.2-16.1-9.9-.6-1-.9-1.9-.9-3 0-1.8 1-3.7 2.6-4.7 1-.7 2-1 3.1-1 1.8 0 3.6 1 4.6 2.6 1.7 2.7 4.5 4.5 7.4 4.6h.6c2.7 0 5.3-1.3 7.3-3.5 1.7-2.1 2.7-4.9 2.7-7.7v-2.6c-3 1.6-6.3 2.6-9.9 2.6-11.7 0-21.2-10.2-21.2-22.6 0-12.4 9.5-22.5 21.2-22.5 3.8 0 7.4 1.1 10.5 3 .9-1.7 2.8-3 4.9-3 3.1 0 5.6 2.5 5.6 5.6V423.2h.2zm-11.2-22.7c0-6.2-4.5-11.2-9.9-11.2-5.5 0-9.9 5-9.9 11.2 0 6.3 4.4 11.3 9.9 11.3 5.4.2 9.9-5 9.9-11.3z"/>
    <path id="XMLID_32_" class="st0" d="M49.4 400.6c0 12.4-10.2 22.5-22.6 22.5S4.3 412.9 4.3 400.6c0-12.5 10.2-22.6 22.5-22.6 12.4 0 22.6 10.2 22.6 22.6zm-11.4 0c0-6.3-5-11.3-11.3-11.3-6.2 0-11.2 5-11.2 11.3 0 6.2 5 11.2 11.2 11.2 6.3.2 11.3-5 11.3-11.2z"/>
    <path id="XMLID_30_" class="st0" d="M78.7 383.8c0 3.1-2.5 5.6-5.6 5.6-1.8 0-4.3.3-5.2 1.7-.3.5-.4 1.1-.4 1.1v25.4c0 3.1-2.5 5.6-5.7 5.6-3.1 0-5.6-2.5-5.6-5.6v-33.9c0-3.2 2.5-5.7 5.6-5.7 1.5 0 2.7.5 3.7 1.4 2.1-.9 4.6-1.4 7.6-1.4 3.1 0 5.6 2.5 5.6 5.8z"/>
    <path id="XMLID_27_" class="st0" d="M103.2 378c4.2 0 8 1.2 11.3 3.1v-20c0-3.1 2.5-5.6 5.6-5.6 3.2 0 5.7 2.5 5.7 5.6v56.5c0 3.1-2.5 5.6-5.7 5.6-2.2 0-4.3-1.4-5.1-3.3-3.4 2-7.5 3.3-11.8 3.3-12.4 0-22.5-10.2-22.5-22.5-.1-12.5 10.1-22.7 22.5-22.7zm0 34c6.3 0 11.3-5 11.3-11.2 0-6.3-5-11.3-11.3-11.3-6.2 0-11.2 5-11.2 11.3-.1 6 5 11.2 11.2 11.2z"/>
    <path id="XMLID_24_" class="st0" d="M151.9 423.1c-5.9-.3-11-2.8-14.5-7.2-3.2-4.1-4.8-9.4-4.8-15.4 0-12.5 8.9-22.5 19.7-22.5 5.4 0 10.5 2.2 14.1 6.4 3.7 4 5.6 9.4 5.6 15.2 0 3.1-2.5 5.7-5.6 5.7h-22c1 3.1 3.1 6.4 8 6.6h.6c1.5 0 4.2 0 6.6-1.7 1-.6 2-.9 3.1-.9 1.8 0 3.7.9 4.7 2.5.7.9 1 1.9 1 3 0 1.8-1 3.8-2.6 4.8-4.6 3.1-9.5 3.6-12.2 3.6-.7 0-1.3 0-1.7-.1zm7.7-29.1c-1.5-2.9-4.1-4.7-7.3-4.7-2.7 0-5.2 1.9-6.8 4.7h14.1z"/>
    <path id="XMLID_22_" class="st0" d="M201.4 383.8c0 3.1-2.5 5.6-5.6 5.6-1.8 0-4.3.3-5.2 1.7-.3.5-.4 1.1-.4 1.1v25.4c0 3.1-2.5 5.6-5.7 5.6-3.1 0-5.6-2.5-5.6-5.6v-33.9c0-3.2 2.5-5.7 5.6-5.7 1.5 0 2.7.5 3.7 1.4 2.1-.9 4.6-1.4 7.6-1.4 3.1 0 5.6 2.5 5.6 5.8z"/>
  </g>
  <path class="st1" d="M-110.6 374l-7.8-13.4c-1.8-3.3-5.1-5.4-8.8-5.4h-47.9c-3.7 0-7.1 2-8.9 5.3l-7.6 14.3c-.4 1.1-.6 2.1-.6 3.7v59.8c0 4.4 3.6 7.4 8 7.4h66.8c4.4 0 7.4-3.1 7.4-7.4v-59.7c-.1-.8-.1-3.6-.6-4.6zm-72.3-6.9h17.9l1.1-3.6h-17l.5-1.1c1.1-2 3.1-3.5 5.4-3.5h48c2.3 0 4.3 1.4 5.4 3.6l.5 1.1H-138l1.1 3.6h17.9l2 3.9h-67.9l2-4zm19.7 74.7v-35.5c0-6 6.1-11 12.2-11 6 0 12.2 4.9 12.2 11v35.5H-163.2z"/>
</svg>